<svg width="105" height="52" viewBox="0 0 105 52" fill="none" xmlns="http://www.w3.org/2000/svg">
<g filter="url(#filter0_d_146_25)">
<path d="M5.92588 4.13407C5.88732 3.85077 6.21185 3.6634 6.43791 3.83845L19.1927 13.7147C19.4248 13.8944 19.312 14.2657 19.0192 14.2859L12.5481 14.7323C12.4498 14.7391 12.3602 14.7908 12.3051 14.8726L8.68302 20.2535C8.51911 20.497 8.14116 20.409 8.10158 20.1182L5.92588 4.13407Z" fill="#EA526F"/>
<path d="M6.24236 4.09099L18.9972 13.9673L12.5261 14.4137C12.3295 14.4272 12.1502 14.5308 12.0402 14.6942L8.41806 20.0751L6.24236 4.09099Z" stroke="white" stroke-width="0.638798"/>
</g>
<g filter="url(#filter1_d_146_25)">
<rect x="20" y="26" width="83" height="22" fill="#EA526F"/>
</g>
<path d="M25.4668 33.7611V32.4651H32.2764V33.7611H29.6384V41H28.1047V33.7611H25.4668ZM32.8577 41V34.5988H34.3205V35.6657H34.3872C34.5039 35.2962 34.7039 35.0114 34.9873 34.8113C35.2735 34.6085 35.5999 34.5071 35.9666 34.5071C36.05 34.5071 36.1431 34.5113 36.2459 34.5196C36.3514 34.5252 36.439 34.5349 36.5084 34.5488V35.9365C36.4445 35.9143 36.3431 35.8949 36.2042 35.8782C36.0681 35.8588 35.9361 35.849 35.8083 35.849C35.5332 35.849 35.286 35.9088 35.0665 36.0282C34.8498 36.1449 34.6789 36.3075 34.5539 36.5158C34.4289 36.7242 34.3663 36.9645 34.3663 37.2368V41H32.8577ZM38.6432 43.4005C38.4376 43.4005 38.2473 43.3838 38.0722 43.3504C37.9 43.3199 37.7625 43.2838 37.6597 43.2421L38.0097 42.0669C38.2292 42.1308 38.4251 42.1613 38.5973 42.1586C38.7696 42.1558 38.921 42.1016 39.0516 41.996C39.185 41.8932 39.2975 41.721 39.3892 41.4793L39.5184 41.1334L37.1971 34.5988H38.7974L40.2727 39.433H40.3393L41.8188 34.5988H43.4233L40.8603 41.7751C40.7408 42.1141 40.5824 42.4044 40.3852 42.6461C40.1879 42.8906 39.9462 43.0768 39.66 43.2046C39.3767 43.3352 39.0377 43.4005 38.6432 43.4005ZM52.4374 36.2908L51.0622 36.4408C51.0233 36.3019 50.9552 36.1713 50.858 36.0491C50.7635 35.9268 50.6357 35.8282 50.4746 35.7532C50.3134 35.6782 50.1162 35.6407 49.8828 35.6407C49.5688 35.6407 49.3049 35.7087 49.091 35.8449C48.8798 35.981 48.7756 36.1574 48.7784 36.3741C48.7756 36.5603 48.8437 36.7117 48.9826 36.8284C49.1243 36.9451 49.3577 37.0409 49.6828 37.1159L50.7746 37.3493C51.3803 37.4799 51.8304 37.6869 52.1249 37.9703C52.4222 38.2537 52.5722 38.6246 52.575 39.083C52.5722 39.4858 52.4541 39.8414 52.2207 40.1498C51.9901 40.4555 51.6692 40.6944 51.2581 40.8666C50.8469 41.0389 50.3746 41.125 49.8411 41.125C49.0576 41.125 48.427 40.9611 47.9491 40.6333C47.4712 40.3026 47.1865 39.8428 47.0948 39.2538L48.5659 39.1121C48.6326 39.4011 48.7743 39.6192 48.991 39.7664C49.2077 39.9137 49.4897 39.9873 49.837 39.9873C50.1954 39.9873 50.4829 39.9137 50.6996 39.7664C50.9191 39.6192 51.0288 39.4372 51.0288 39.2205C51.0288 39.0371 50.958 38.8857 50.8163 38.7662C50.6774 38.6468 50.4607 38.5551 50.1662 38.4912L49.0743 38.262C48.4603 38.1342 48.0061 37.9189 47.7116 37.616C47.4171 37.3104 47.2712 36.9242 47.274 36.4575C47.2712 36.063 47.3782 35.7212 47.5949 35.4323C47.8144 35.1406 48.1186 34.9155 48.5075 34.7572C48.8993 34.596 49.3508 34.5154 49.862 34.5154C50.6121 34.5154 51.2025 34.6752 51.6331 34.9947C52.0665 35.3142 52.3346 35.7462 52.4374 36.2908ZM56.6111 41.125C55.9721 41.125 55.4234 40.9847 54.965 40.7041C54.5094 40.4235 54.1579 40.0359 53.9106 39.5414C53.6661 39.0441 53.5439 38.4717 53.5439 37.8244C53.5439 37.1743 53.6689 36.6006 53.919 36.1032C54.169 35.6032 54.5219 35.2142 54.9775 34.9364C55.4359 34.6558 55.9777 34.5154 56.6028 34.5154C57.1223 34.5154 57.5822 34.6113 57.9822 34.803C58.3851 34.9919 58.706 35.26 58.9449 35.6073C59.1838 35.9518 59.32 36.3547 59.3533 36.8159H57.9114C57.853 36.5075 57.7141 36.2505 57.4946 36.0449C57.2779 35.8365 56.9876 35.7323 56.6236 35.7323C56.3153 35.7323 56.0444 35.8157 55.811 35.9824C55.5776 36.1463 55.3956 36.3825 55.2651 36.6909C55.1373 36.9992 55.0734 37.3688 55.0734 37.7994C55.0734 38.2356 55.1373 38.6107 55.2651 38.9246C55.3929 39.2358 55.5721 39.4761 55.8027 39.6456C56.036 39.8123 56.3097 39.8956 56.6236 39.8956C56.8459 39.8956 57.0446 39.854 57.2196 39.7706C57.3974 39.6845 57.546 39.5608 57.6655 39.3997C57.785 39.2386 57.8669 39.0427 57.9114 38.8121H59.3533C59.3172 39.265 59.1838 39.6664 58.9532 40.0165C58.7227 40.3638 58.4087 40.636 58.0114 40.8333C57.6141 41.0278 57.1474 41.125 56.6111 41.125ZM60.5921 41V34.5988H62.0549V35.6657H62.1216C62.2382 35.2962 62.4383 35.0114 62.7217 34.8113C63.0078 34.6085 63.3343 34.5071 63.701 34.5071C63.7844 34.5071 63.8774 34.5113 63.9802 34.5196C64.0858 34.5252 64.1733 34.5349 64.2428 34.5488V35.9365C64.1789 35.9143 64.0775 35.8949 63.9386 35.8782C63.8024 35.8588 63.6705 35.849 63.5427 35.849C63.2676 35.849 63.0203 35.9088 62.8008 36.0282C62.5841 36.1449 62.4133 36.3075 62.2882 36.5158C62.1632 36.7242 62.1007 36.9645 62.1007 37.2368V41H60.5921ZM67.7737 41.125C67.1485 41.125 66.6068 40.9875 66.1483 40.7124C65.6899 40.4374 65.3343 40.0526 65.0815 39.5581C64.8314 39.0635 64.7064 38.4856 64.7064 37.8244C64.7064 37.1632 64.8314 36.5839 65.0815 36.0866C65.3343 35.5893 65.6899 35.2031 66.1483 34.928C66.6068 34.653 67.1485 34.5154 67.7737 34.5154C68.3988 34.5154 68.9405 34.653 69.399 34.928C69.8574 35.2031 70.2116 35.5893 70.4617 36.0866C70.7145 36.5839 70.8409 37.1632 70.8409 37.8244C70.8409 38.4856 70.7145 39.0635 70.4617 39.5581C70.2116 40.0526 69.8574 40.4374 69.399 40.7124C68.9405 40.9875 68.3988 41.125 67.7737 41.125ZM67.782 39.9165C68.1209 39.9165 68.4043 39.8234 68.6321 39.6372C68.86 39.4483 69.0294 39.1955 69.1406 38.8788C69.2545 38.562 69.3114 38.2092 69.3114 37.8202C69.3114 37.4285 69.2545 37.0743 69.1406 36.7575C69.0294 36.438 68.86 36.1838 68.6321 35.9949C68.4043 35.806 68.1209 35.7115 67.782 35.7115C67.4347 35.7115 67.1458 35.806 66.9152 35.9949C66.6873 36.1838 66.5165 36.438 66.4026 36.7575C66.2914 37.0743 66.2359 37.4285 66.2359 37.8202C66.2359 38.2092 66.2914 38.562 66.4026 38.8788C66.5165 39.1955 66.6873 39.4483 66.9152 39.6372C67.1458 39.8234 67.4347 39.9165 67.782 39.9165ZM73.63 32.4651V41H72.1213V32.4651H73.63ZM76.6899 32.4651V41H75.1813V32.4651H76.6899ZM78.2412 41V34.5988H79.7499V41H78.2412ZM78.9997 33.6903C78.7608 33.6903 78.5552 33.6111 78.3829 33.4527C78.2107 33.2916 78.1246 33.0985 78.1246 32.8735C78.1246 32.6457 78.2107 32.4526 78.3829 32.2942C78.5552 32.1331 78.7608 32.0525 78.9997 32.0525C79.2414 32.0525 79.447 32.1331 79.6165 32.2942C79.7888 32.4526 79.8749 32.6457 79.8749 32.8735C79.8749 33.0985 79.7888 33.2916 79.6165 33.4527C79.447 33.6111 79.2414 33.6903 78.9997 33.6903ZM82.8098 37.2493V41H81.3012V34.5988H82.7431V35.6865H82.8181C82.9654 35.3281 83.2002 35.0433 83.5224 34.8322C83.8475 34.621 84.249 34.5154 84.7268 34.5154C85.1686 34.5154 85.5534 34.6099 85.8812 34.7988C86.2118 34.9878 86.4674 35.2614 86.648 35.6198C86.8314 35.9782 86.9217 36.413 86.9189 36.9242V41H85.4103V37.1576C85.4103 36.7298 85.2992 36.395 85.0769 36.1533C84.8574 35.9115 84.5532 35.7907 84.1642 35.7907C83.9003 35.7907 83.6655 35.849 83.4599 35.9657C83.2571 36.0796 83.0974 36.2449 82.9807 36.4616C82.8668 36.6784 82.8098 36.9409 82.8098 37.2493ZM91.2364 43.5338C90.6946 43.5338 90.2293 43.4602 89.8403 43.3129C89.4513 43.1685 89.1388 42.974 88.9026 42.7295C88.6665 42.485 88.5025 42.2141 88.4109 41.9168L89.7695 41.5876C89.8306 41.7126 89.9195 41.8363 90.0362 41.9585C90.1529 42.0835 90.3098 42.1863 90.5071 42.2669C90.7071 42.3503 90.9586 42.3919 91.2614 42.3919C91.6893 42.3919 92.0435 42.2877 92.3241 42.0794C92.6047 41.8738 92.745 41.5348 92.745 41.0625V39.8498H92.67C92.5922 40.0054 92.4783 40.1651 92.3283 40.329C92.181 40.493 91.9851 40.6305 91.7407 40.7416C91.4989 40.8528 91.1947 40.9083 90.828 40.9083C90.3362 40.9083 89.8903 40.793 89.4902 40.5624C89.0929 40.329 88.7762 39.9818 88.5401 39.5206C88.3067 39.0566 88.19 38.4759 88.19 37.7786C88.19 37.0757 88.3067 36.4825 88.5401 35.9991C88.7762 35.5129 89.0943 35.1447 89.4944 34.8947C89.8945 34.6419 90.3404 34.5154 90.8322 34.5154C91.2072 34.5154 91.5156 34.5794 91.7573 34.7072C92.0018 34.8322 92.1963 34.9836 92.3408 35.1614C92.4852 35.3364 92.595 35.5017 92.67 35.6573H92.7533V34.5988H94.2411V41.1042C94.2411 41.6515 94.1105 42.1044 93.8494 42.4628C93.5882 42.8212 93.2312 43.0893 92.7783 43.2671C92.3255 43.4449 91.8115 43.5338 91.2364 43.5338ZM91.2489 39.7248C91.5684 39.7248 91.8407 39.647 92.0657 39.4914C92.2908 39.3358 92.4616 39.1121 92.5783 38.8204C92.695 38.5287 92.7533 38.1786 92.7533 37.7702C92.7533 37.3674 92.695 37.0145 92.5783 36.7117C92.4644 36.4089 92.2949 36.1741 92.0699 36.0074C91.8476 35.8379 91.574 35.7532 91.2489 35.7532C90.9127 35.7532 90.6321 35.8407 90.4071 36.0157C90.182 36.1908 90.0126 36.4311 89.8986 36.7367C89.7847 37.0395 89.7278 37.384 89.7278 37.7702C89.7278 38.162 89.7847 38.5051 89.8986 38.7996C90.0153 39.0913 90.1862 39.3191 90.4112 39.483C90.6391 39.6442 90.9183 39.7248 91.2489 39.7248ZM97.6334 32.4651L97.4959 38.4912H96.154L96.0206 32.4651H97.6334ZM96.8249 41.0917C96.5721 41.0917 96.3554 41.0028 96.1748 40.825C95.997 40.6472 95.9081 40.4304 95.9081 40.1748C95.9081 39.9248 95.997 39.7109 96.1748 39.5331C96.3554 39.3552 96.5721 39.2663 96.8249 39.2663C97.0722 39.2663 97.2861 39.3552 97.4667 39.5331C97.6501 39.7109 97.7418 39.9248 97.7418 40.1748C97.7418 40.3443 97.6987 40.4985 97.6126 40.6374C97.5292 40.7763 97.4181 40.8875 97.2792 40.9708C97.1431 41.0514 96.9916 41.0917 96.8249 41.0917Z" fill="white"/>
<defs>
<filter id="filter0_d_146_25" x="5.92273" y="3.77075" width="15.9495" height="19.1792" filterUnits="userSpaceOnUse" color-interpolation-filters="sRGB">
<feFlood flood-opacity="0" result="BackgroundImageFix"/>
<feColorMatrix in="SourceAlpha" type="matrix" values="0 0 0 0 0 0 0 0 0 0 0 0 0 0 0 0 0 0 127 0" result="hardAlpha"/>
<feOffset dx="1.2776" dy="1.2776"/>
<feGaussianBlur stdDeviation="0.638798"/>
<feComposite in2="hardAlpha" operator="out"/>
<feColorMatrix type="matrix" values="0 0 0 0 0 0 0 0 0 0 0 0 0 0 0 0 0 0 0.25 0"/>
<feBlend mode="normal" in2="BackgroundImageFix" result="effect1_dropShadow_146_25"/>
<feBlend mode="normal" in="SourceGraphic" in2="effect1_dropShadow_146_25" result="shape"/>
</filter>
<filter id="filter1_d_146_25" x="18" y="26" width="87" height="26" filterUnits="userSpaceOnUse" color-interpolation-filters="sRGB">
<feFlood flood-opacity="0" result="BackgroundImageFix"/>
<feColorMatrix in="SourceAlpha" type="matrix" values="0 0 0 0 0 0 0 0 0 0 0 0 0 0 0 0 0 0 127 0" result="hardAlpha"/>
<feOffset dy="2"/>
<feGaussianBlur stdDeviation="1"/>
<feComposite in2="hardAlpha" operator="out"/>
<feColorMatrix type="matrix" values="0 0 0 0 0 0 0 0 0 0 0 0 0 0 0 0 0 0 0.25 0"/>
<feBlend mode="normal" in2="BackgroundImageFix" result="effect1_dropShadow_146_25"/>
<feBlend mode="normal" in="SourceGraphic" in2="effect1_dropShadow_146_25" result="shape"/>
</filter>
</defs>
</svg>
