<svg width="105" height="52" viewBox="0 0 105 52" fill="none" xmlns="http://www.w3.org/2000/svg">
<g filter="url(#filter0_d_609_16)">
<path d="M5.92588 4.13431C5.88732 3.85102 6.21185 3.66365 6.43791 3.83869L19.1927 13.715C19.4248 13.8947 19.312 14.2659 19.0192 14.2861L12.5481 14.7325C12.4498 14.7393 12.3602 14.7911 12.3051 14.8728L8.68302 20.2537C8.51911 20.4972 8.14116 20.4093 8.10158 20.1184L5.92588 4.13431Z" fill="#EA526F"/>
<path d="M6.24236 4.09123L18.9972 13.9675L12.5261 14.4139C12.3295 14.4275 12.1502 14.531 12.0402 14.6945L8.41806 20.0754L6.24236 4.09123Z" stroke="white" stroke-width="0.638798"/>
</g>
<g filter="url(#filter1_d_609_16)">
<rect x="20" y="26" width="83" height="22" fill="#EA526F"/>
</g>
<path d="M32.4802 34.8113C32.4413 34.4474 32.2774 34.164 31.9884 33.9612C31.7023 33.7584 31.33 33.657 30.8716 33.657C30.5493 33.657 30.2728 33.7056 30.0422 33.8028C29.8116 33.9001 29.6352 34.032 29.513 34.1987C29.3907 34.3654 29.3282 34.5557 29.3254 34.7697C29.3254 34.9475 29.3657 35.1017 29.4463 35.2323C29.5296 35.3628 29.6422 35.474 29.7839 35.5656C29.9255 35.6546 30.0825 35.7296 30.2548 35.7907C30.427 35.8518 30.6007 35.9032 30.7757 35.9449L31.5759 36.1449C31.8981 36.2199 32.2079 36.3213 32.5052 36.4491C32.8053 36.5769 33.0734 36.7381 33.3095 36.9326C33.5485 37.1271 33.7374 37.3618 33.8763 37.6369C34.0152 37.9119 34.0847 38.2342 34.0847 38.6037C34.0847 39.1038 33.9569 39.5442 33.7013 39.9248C33.4457 40.3026 33.0761 40.5985 32.5927 40.8125C32.1121 41.0236 31.53 41.1292 30.8466 41.1292C30.1825 41.1292 29.606 41.0264 29.1171 40.8208C28.6309 40.6152 28.2502 40.3151 27.9752 39.9206C27.7029 39.5261 27.5557 39.0455 27.5334 38.4787H29.0546C29.0768 38.776 29.1685 39.0232 29.3296 39.2205C29.4907 39.4178 29.7005 39.565 29.9589 39.6622C30.22 39.7595 30.5118 39.8081 30.8341 39.8081C31.1702 39.8081 31.4647 39.7581 31.7176 39.6581C31.9732 39.5553 32.1732 39.4136 32.3177 39.233C32.4621 39.0496 32.5358 38.8357 32.5385 38.5912C32.5358 38.369 32.4705 38.1856 32.3427 38.0411C32.2149 37.8939 32.0357 37.7716 31.8051 37.6744C31.5772 37.5744 31.3105 37.4855 31.0049 37.4077L30.0339 37.1576C29.331 36.977 28.7753 36.7034 28.3669 36.3366C27.9613 35.9671 27.7585 35.4767 27.7585 34.8655C27.7585 34.3626 27.8946 33.9223 28.1669 33.5444C28.4419 33.1666 28.8156 32.8735 29.2879 32.6651C29.7602 32.454 30.2951 32.3484 30.8924 32.3484C31.4981 32.3484 32.0287 32.454 32.4844 32.6651C32.9428 32.8735 33.3026 33.1638 33.5637 33.5361C33.8249 33.9056 33.9596 34.3307 33.968 34.8113H32.4802ZM38.1886 41.125C37.5496 41.125 37.0008 40.9847 36.5424 40.7041C36.0868 40.4235 35.7353 40.0359 35.4881 39.5414C35.2436 39.0441 35.1213 38.4717 35.1213 37.8244C35.1213 37.1743 35.2463 36.6006 35.4964 36.1032C35.7464 35.6032 36.0993 35.2142 36.5549 34.9364C37.0133 34.6558 37.5551 34.5154 38.1802 34.5154C38.6998 34.5154 39.1596 34.6113 39.5596 34.803C39.9625 34.9919 40.2834 35.26 40.5223 35.6073C40.7613 35.9518 40.8974 36.3547 40.9307 36.8159H39.4888C39.4305 36.5075 39.2915 36.2505 39.0721 36.0449C38.8554 35.8365 38.565 35.7323 38.2011 35.7323C37.8927 35.7323 37.6218 35.8157 37.3884 35.9824C37.155 36.1463 36.9731 36.3825 36.8425 36.6909C36.7147 36.9992 36.6508 37.3688 36.6508 37.7994C36.6508 38.2356 36.7147 38.6107 36.8425 38.9246C36.9703 39.2358 37.1495 39.4761 37.3801 39.6456C37.6135 39.8123 37.8871 39.8956 38.2011 39.8956C38.4233 39.8956 38.622 39.854 38.797 39.7706C38.9748 39.6845 39.1235 39.5608 39.2429 39.3997C39.3624 39.2386 39.4444 39.0427 39.4888 38.8121H40.9307C40.8946 39.265 40.7613 39.6664 40.5307 40.0165C40.3001 40.3638 39.9861 40.636 39.5888 40.8333C39.1915 41.0278 38.7248 41.125 38.1886 41.125ZM42.1695 41V34.5988H43.6323V35.6657H43.699C43.8157 35.2962 44.0157 35.0114 44.2991 34.8113C44.5852 34.6085 44.9117 34.5071 45.2784 34.5071C45.3618 34.5071 45.4549 34.5113 45.5577 34.5196C45.6632 34.5252 45.7507 34.5349 45.8202 34.5488V35.9365C45.7563 35.9143 45.6549 35.8949 45.516 35.8782C45.3798 35.8588 45.2479 35.849 45.1201 35.849C44.845 35.849 44.5977 35.9088 44.3783 36.0282C44.1616 36.1449 43.9907 36.3075 43.8657 36.5158C43.7406 36.7242 43.6781 36.9645 43.6781 37.2368V41H42.1695ZM49.3511 41.125C48.726 41.125 48.1842 40.9875 47.7258 40.7124C47.2673 40.4374 46.9117 40.0526 46.6589 39.5581C46.4089 39.0635 46.2838 38.4856 46.2838 37.8244C46.2838 37.1632 46.4089 36.5839 46.6589 36.0866C46.9117 35.5893 47.2673 35.2031 47.7258 34.928C48.1842 34.653 48.726 34.5154 49.3511 34.5154C49.9762 34.5154 50.518 34.653 50.9764 34.928C51.4348 35.2031 51.789 35.5893 52.0391 36.0866C52.2919 36.5839 52.4183 37.1632 52.4183 37.8244C52.4183 38.4856 52.2919 39.0635 52.0391 39.5581C51.789 40.0526 51.4348 40.4374 50.9764 40.7124C50.518 40.9875 49.9762 41.125 49.3511 41.125ZM49.3594 39.9165C49.6984 39.9165 49.9817 39.8234 50.2096 39.6372C50.4374 39.4483 50.6069 39.1955 50.718 38.8788C50.8319 38.562 50.8889 38.2092 50.8889 37.8202C50.8889 37.4285 50.8319 37.0743 50.718 36.7575C50.6069 36.438 50.4374 36.1838 50.2096 35.9949C49.9817 35.806 49.6984 35.7115 49.3594 35.7115C49.0121 35.7115 48.7232 35.806 48.4926 35.9949C48.2648 36.1838 48.0939 36.438 47.98 36.7575C47.8688 37.0743 47.8133 37.4285 47.8133 37.8202C47.8133 38.2092 47.8688 38.562 47.98 38.8788C48.0939 39.1955 48.2648 39.4483 48.4926 39.6372C48.7232 39.8234 49.0121 39.9165 49.3594 39.9165ZM55.2074 32.4651V41H53.6988V32.4651H55.2074ZM58.2673 32.4651V41H56.7587V32.4651H58.2673ZM65.1051 41.1125C64.6022 41.1125 64.1521 40.9833 63.7548 40.7249C63.3575 40.4666 63.0436 40.0915 62.813 39.5997C62.5824 39.108 62.4671 38.5106 62.4671 37.8077C62.4671 37.0965 62.5838 36.4964 62.8171 36.0074C63.0533 35.5156 63.3714 35.1447 63.7715 34.8947C64.1716 34.6419 64.6175 34.5154 65.1092 34.5154C65.4843 34.5154 65.7927 34.5794 66.0344 34.7072C66.2761 34.8322 66.4678 34.9836 66.6095 35.1614C66.7512 35.3364 66.861 35.5017 66.9387 35.6573H67.0013V32.4651H68.514V41H67.0304V39.9915H66.9387C66.861 40.1471 66.7484 40.3124 66.6012 40.4874C66.4539 40.6597 66.2595 40.8069 66.0177 40.9292C65.776 41.0514 65.4718 41.1125 65.1051 41.1125ZM65.526 39.8748C65.8455 39.8748 66.1178 39.7887 66.3428 39.6164C66.5678 39.4414 66.7387 39.1983 66.8554 38.8871C66.9721 38.5759 67.0304 38.2134 67.0304 37.7994C67.0304 37.3854 66.9721 37.0256 66.8554 36.72C66.7415 36.4144 66.572 36.1769 66.347 36.0074C66.1247 35.8379 65.851 35.7532 65.526 35.7532C65.1898 35.7532 64.9092 35.8407 64.6842 36.0157C64.4591 36.1908 64.2896 36.4325 64.1757 36.7409C64.0618 37.0493 64.0049 37.4021 64.0049 37.7994C64.0049 38.1995 64.0618 38.5565 64.1757 38.8704C64.2924 39.1816 64.4633 39.4275 64.6883 39.6081C64.9161 39.7859 65.1954 39.8748 65.526 39.8748ZM72.9138 41.125C72.2887 41.125 71.7469 40.9875 71.2885 40.7124C70.8301 40.4374 70.4745 40.0526 70.2217 39.5581C69.9716 39.0635 69.8466 38.4856 69.8466 37.8244C69.8466 37.1632 69.9716 36.5839 70.2217 36.0866C70.4745 35.5893 70.8301 35.2031 71.2885 34.928C71.7469 34.653 72.2887 34.5154 72.9138 34.5154C73.5389 34.5154 74.0807 34.653 74.5391 34.928C74.9976 35.2031 75.3518 35.5893 75.6018 36.0866C75.8547 36.5839 75.9811 37.1632 75.9811 37.8244C75.9811 38.4856 75.8547 39.0635 75.6018 39.5581C75.3518 40.0526 74.9976 40.4374 74.5391 40.7124C74.0807 40.9875 73.5389 41.125 72.9138 41.125ZM72.9222 39.9165C73.2611 39.9165 73.5445 39.8234 73.7723 39.6372C74.0001 39.4483 74.1696 39.1955 74.2808 38.8788C74.3947 38.562 74.4516 38.2092 74.4516 37.8202C74.4516 37.4285 74.3947 37.0743 74.2808 36.7575C74.1696 36.438 74.0001 36.1838 73.7723 35.9949C73.5445 35.806 73.2611 35.7115 72.9222 35.7115C72.5749 35.7115 72.2859 35.806 72.0553 35.9949C71.8275 36.1838 71.6566 36.438 71.5427 36.7575C71.4316 37.0743 71.376 37.4285 71.376 37.8202C71.376 38.2092 71.4316 38.562 71.5427 38.8788C71.6566 39.1955 71.8275 39.4483 72.0553 39.6372C72.2859 39.8234 72.5749 39.9165 72.9222 39.9165ZM78.3992 41L76.5906 34.5988H78.1283L79.2536 39.0996H79.3119L80.4621 34.5988H81.9832L83.1335 39.0746H83.196L84.3045 34.5988H85.8465L84.0336 41H82.4625L81.2623 36.6742H81.1748L79.9745 41H78.3992ZM88.4084 37.2493V41H86.8998V34.5988H88.3417V35.6865H88.4167C88.564 35.3281 88.7988 35.0433 89.121 34.8322C89.4461 34.621 89.8476 34.5154 90.3254 34.5154C90.7672 34.5154 91.152 34.6099 91.4798 34.7988C91.8104 34.9878 92.066 35.2614 92.2466 35.6198C92.43 35.9782 92.5203 36.413 92.5175 36.9242V41H91.0089V37.1576C91.0089 36.7298 90.8978 36.395 90.6755 36.1533C90.456 35.9115 90.1518 35.7907 89.7628 35.7907C89.4989 35.7907 89.2641 35.849 89.0585 35.9657C88.8557 36.0796 88.696 36.2449 88.5793 36.4616C88.4654 36.6784 88.4084 36.9409 88.4084 37.2493ZM95.8973 32.4651L95.7598 38.4912H94.4179L94.2845 32.4651H95.8973ZM95.0888 41.0917C94.836 41.0917 94.6193 41.0028 94.4387 40.825C94.2609 40.6472 94.172 40.4304 94.172 40.1748C94.172 39.9248 94.2609 39.7109 94.4387 39.5331C94.6193 39.3552 94.836 39.2663 95.0888 39.2663C95.3361 39.2663 95.55 39.3552 95.7306 39.5331C95.914 39.7109 96.0057 39.9248 96.0057 40.1748C96.0057 40.3443 95.9626 40.4985 95.8765 40.6374C95.7931 40.7763 95.682 40.8875 95.5431 40.9708C95.4069 41.0514 95.2555 41.0917 95.0888 41.0917Z" fill="white"/>
<defs>
<filter id="filter0_d_609_16" x="5.92273" y="3.771" width="15.9495" height="19.1792" filterUnits="userSpaceOnUse" color-interpolation-filters="sRGB">
<feFlood flood-opacity="0" result="BackgroundImageFix"/>
<feColorMatrix in="SourceAlpha" type="matrix" values="0 0 0 0 0 0 0 0 0 0 0 0 0 0 0 0 0 0 127 0" result="hardAlpha"/>
<feOffset dx="1.2776" dy="1.2776"/>
<feGaussianBlur stdDeviation="0.638798"/>
<feComposite in2="hardAlpha" operator="out"/>
<feColorMatrix type="matrix" values="0 0 0 0 0 0 0 0 0 0 0 0 0 0 0 0 0 0 0.25 0"/>
<feBlend mode="normal" in2="BackgroundImageFix" result="effect1_dropShadow_609_16"/>
<feBlend mode="normal" in="SourceGraphic" in2="effect1_dropShadow_609_16" result="shape"/>
</filter>
<filter id="filter1_d_609_16" x="18" y="26" width="87" height="26" filterUnits="userSpaceOnUse" color-interpolation-filters="sRGB">
<feFlood flood-opacity="0" result="BackgroundImageFix"/>
<feColorMatrix in="SourceAlpha" type="matrix" values="0 0 0 0 0 0 0 0 0 0 0 0 0 0 0 0 0 0 127 0" result="hardAlpha"/>
<feOffset dy="2"/>
<feGaussianBlur stdDeviation="1"/>
<feComposite in2="hardAlpha" operator="out"/>
<feColorMatrix type="matrix" values="0 0 0 0 0 0 0 0 0 0 0 0 0 0 0 0 0 0 0.25 0"/>
<feBlend mode="normal" in2="BackgroundImageFix" result="effect1_dropShadow_609_16"/>
<feBlend mode="normal" in="SourceGraphic" in2="effect1_dropShadow_609_16" result="shape"/>
</filter>
</defs>
</svg>
