<svg width="367" height="85" viewBox="0 0 367 85" fill="none" xmlns="http://www.w3.org/2000/svg">
<path d="M15.2387 32.7528L2.65024 56.7318L0.871529 60.1181C0.708808 60.4267 -0.329243 62.1661 0.105616 62.2222C0.540475 62.2783 2.08633 59.2596 2.23783 58.9706L14.8263 34.9916L16.605 31.6053C16.7677 31.2939 17.8058 29.5545 17.3709 29.5012C16.9361 29.4479 15.3902 32.4638 15.2387 32.7528Z" fill="#EEEEEE"/>
<path d="M29.7993 5.46897L41.7144 31.2238L43.423 34.9131L46.5792 29.4451H17.4998L16.6048 31.6054L30.1584 5.78038L32.0606 2.16123C32.2205 1.85262 33.2613 0.110381 32.8265 0.0570755C32.3916 0.00377025 30.8458 3.01973 30.7055 3.3087L17.1491 29.1197L15.2498 32.7416C15.188 32.8595 14.2678 34.9019 14.3548 34.9019H43.423C44.0346 34.9019 45.0109 32.7781 45.2719 32.3264C45.572 31.8074 46.8766 30.082 46.5792 29.4339L34.6613 3.68184L32.9499 0.000964489C32.9219 -0.0551463 31.2273 2.35481 31.0983 2.57645C30.8037 3.09548 29.4991 4.82369 29.7993 5.46897Z" fill="#EEEEEE"/>
<path d="M82.6586 79.527H71.4196C71.0885 79.527 70.0393 79.7094 69.7531 79.527C69.3042 79.224 68.9283 77.7483 68.7094 77.2826L66.1844 71.8174L50.754 38.4623L46.5905 29.465L43.4343 34.933C55.01 34.933 66.5997 34.7562 78.1725 34.933C78.5877 34.933 78.3857 34.6889 78.4531 35.135C78.5078 35.7993 78.5219 36.4664 78.4952 37.1325L78.6691 45.4004L79.1713 69.1606L79.5023 84.8716C79.5023 85.2868 80.8406 83.3173 80.9388 83.1574C81.3652 82.4672 81.7664 81.7546 82.1283 81.0364C82.3135 80.6605 82.6894 80.105 82.6894 79.6841L82.3275 62.7611L81.7664 35.7971L81.6346 29.5856L81.6177 29.4453H46.5793C45.9649 29.4453 44.9886 31.5663 44.7277 32.0208C44.4275 32.5398 43.1229 34.2652 43.4231 34.9133L54.3647 58.5584L62.2483 75.5937L65.0314 81.6087L65.9768 83.6484C66.1227 83.9682 66.2574 84.5349 66.5071 84.793C66.7568 85.0511 66.7203 84.995 67.2 84.995H79.4995C80.114 84.995 81.0903 82.874 81.3512 82.4195C81.4859 82.2007 82.7175 79.527 82.6586 79.527Z" fill="#EEEEEE"/>
<path d="M69.7586 79.5298H36.4456C35.8312 79.5298 34.8549 81.6508 34.594 82.1053C34.4677 82.3213 33.2305 84.995 33.2894 84.995H66.6164C67.2308 84.995 68.2044 82.874 68.4681 82.4195C68.5915 82.2035 69.8288 79.5298 69.7727 79.5298H69.7586Z" fill="#EEEEEE"/>
<path d="M28.5117 34.7733V59.8156C28.5117 60.2252 29.8528 58.2585 29.951 58.1014C30.4812 57.2401 31.7016 55.7111 31.7016 54.6281V29.5858C31.7016 29.1762 30.3606 31.1401 30.2624 31.3C29.7321 32.1613 28.5117 33.6904 28.5117 34.7733Z" fill="#EEEEEE"/>
<path d="M102.561 56.354V35.033C102.561 34.2512 102.75 33.5405 103.129 32.9009C103.508 32.2375 104.017 31.7163 104.657 31.3373C105.32 30.9583 106.043 30.7687 106.825 30.7687H123.882C124.663 30.7687 125.374 30.9583 126.014 31.3373C126.677 31.7163 127.198 32.2375 127.577 32.9009C127.956 33.5405 128.146 34.2512 128.146 35.033V56.354H125.267V47.0083H105.439V56.354H102.561ZM105.439 44.1299H125.267V35.033C125.267 34.6539 125.125 34.3341 124.841 34.0735C124.58 33.7892 124.261 33.6471 123.882 33.6471H106.825C106.446 33.6471 106.114 33.7892 105.83 34.0735C105.569 34.3341 105.439 34.6539 105.439 35.033V44.1299ZM135.357 56.354C134.552 56.354 133.817 56.1645 133.154 55.7854C132.514 55.3827 131.993 54.8615 131.59 54.2219C131.211 53.5586 131.022 52.836 131.022 52.0543V40.0434C131.022 39.2616 131.211 38.5509 131.59 37.9113C131.993 37.248 132.514 36.7268 133.154 36.3478C133.817 35.945 134.552 35.7437 135.357 35.7437H149.109V28.992H152.023V56.354H135.357ZM135.357 53.4401H147.723C148.102 53.4401 148.422 53.3098 148.683 53.0492C148.967 52.765 149.109 52.4333 149.109 52.0543V40.0434C149.109 39.6644 148.967 39.3445 148.683 39.084C148.422 38.7997 148.102 38.6575 147.723 38.6575H135.357C134.978 38.6575 134.646 38.7997 134.362 39.084C134.102 39.3445 133.971 39.6644 133.971 40.0434V52.0543C133.971 52.4333 134.102 52.765 134.362 53.0492C134.646 53.3098 134.978 53.4401 135.357 53.4401ZM155.754 56.354V35.7437H158.668V56.354H155.754ZM155.754 31.9059V28.992H158.668V31.9059H155.754ZM167.481 56.354C166.675 56.354 165.941 56.1645 165.278 55.7854C164.638 55.3827 164.129 54.8615 163.75 54.2219C163.371 53.5586 163.181 52.836 163.181 52.0543V28.992H166.095V35.7437H175.014V38.6575H166.095V52.0543C166.095 52.4333 166.225 52.765 166.486 53.0492C166.77 53.3098 167.102 53.4401 167.481 53.4401H175.014V56.354H167.481ZM181.167 64.5271V61.5777H194.031C194.41 61.5777 194.73 61.4355 194.991 61.1512C195.275 60.8906 195.417 60.5708 195.417 60.1918V56.354H181.665C180.883 56.354 180.161 56.1645 179.497 55.7854C178.858 55.3827 178.337 54.8615 177.934 54.2219C177.555 53.5586 177.365 52.836 177.365 52.0543V35.8147H180.279V52.0543C180.279 52.4333 180.409 52.765 180.67 53.0492C180.954 53.3098 181.286 53.4401 181.665 53.4401H194.031C194.41 53.4401 194.73 53.3098 194.991 53.0492C195.275 52.765 195.417 52.4333 195.417 52.0543V35.8147H198.331V60.1918C198.331 60.9973 198.141 61.7198 197.762 62.3594C197.383 63.0228 196.862 63.5439 196.199 63.923C195.559 64.3257 194.837 64.5271 194.031 64.5271H181.167ZM205.514 56.354C204.732 56.354 204.009 56.1645 203.346 55.7854C202.706 55.3827 202.185 54.8615 201.783 54.2219C201.403 53.5586 201.214 52.836 201.214 52.0543V44.5919H219.266V40.0434C219.266 39.6644 219.124 39.3445 218.839 39.084C218.579 38.7997 218.259 38.6575 217.88 38.6575H201.214V35.7437H217.88C218.685 35.7437 219.408 35.945 220.048 36.3478C220.711 36.7268 221.232 37.248 221.611 37.9113C222.014 38.5509 222.215 39.2616 222.215 40.0434V56.354H205.514ZM205.514 53.4401H219.266V47.5058H204.128V52.0543C204.128 52.4333 204.258 52.765 204.519 53.0492C204.803 53.3098 205.135 53.4401 205.514 53.4401ZM235.711 56.354V30.7687H239.656L250.281 43.4192L260.906 30.7687H264.85V56.354H261.972V34.038L250.281 47.9322L238.59 34.038V56.354H235.711ZM272.8 56.354C272.019 56.354 271.296 56.1645 270.633 55.7854C269.993 55.3827 269.472 54.8615 269.069 54.2219C268.69 53.5586 268.501 52.836 268.501 52.0543V40.0434C268.501 39.2616 268.69 38.5509 269.069 37.9113C269.472 37.248 269.993 36.7268 270.633 36.3478C271.296 35.945 272.019 35.7437 272.8 35.7437H285.167C285.972 35.7437 286.695 35.945 287.334 36.3478C287.998 36.7268 288.519 37.248 288.898 37.9113C289.301 38.5509 289.502 39.2616 289.502 40.0434V47.5058H271.415V52.0543C271.415 52.4333 271.545 52.765 271.806 53.0492C272.09 53.3098 272.421 53.4401 272.8 53.4401H289.502V56.354H272.8ZM271.415 44.5919H286.553V40.0434C286.553 39.6644 286.41 39.3445 286.126 39.084C285.866 38.7997 285.546 38.6575 285.167 38.6575H272.8C272.421 38.6575 272.09 38.7997 271.806 39.084C271.545 39.3445 271.415 39.6644 271.415 40.0434V44.5919ZM293.211 56.354V35.7437H309.913C310.694 35.7437 311.405 35.945 312.045 36.3478C312.708 36.7268 313.229 37.248 313.608 37.9113C314.011 38.5509 314.212 39.2616 314.212 40.0434V56.354H311.299V40.0434C311.299 39.6644 311.156 39.3445 310.872 39.084C310.612 38.7997 310.292 38.6575 309.913 38.6575H297.547C297.167 38.6575 296.836 38.7997 296.552 39.084C296.267 39.3445 296.125 39.6644 296.125 40.0434V56.354H293.211ZM321.627 56.354C320.845 56.354 320.122 56.1645 319.459 55.7854C318.819 55.3827 318.298 54.8615 317.895 54.2219C317.516 53.5586 317.327 52.836 317.327 52.0543V40.0434C317.327 39.2616 317.516 38.5509 317.895 37.9113C318.298 37.248 318.819 36.7268 319.459 36.3478C320.122 35.945 320.845 35.7437 321.627 35.7437H333.993C334.798 35.7437 335.521 35.945 336.16 36.3478C336.824 36.7268 337.345 37.248 337.724 37.9113C338.127 38.5509 338.328 39.2616 338.328 40.0434V52.0543C338.328 52.836 338.127 53.5586 337.724 54.2219C337.345 54.8615 336.824 55.3827 336.16 55.7854C335.521 56.1645 334.798 56.354 333.993 56.354H321.627ZM321.627 53.4401H333.993C334.372 53.4401 334.692 53.3098 334.952 53.0492C335.236 52.765 335.379 52.4333 335.379 52.0543V40.0434C335.379 39.6644 335.236 39.3445 334.952 39.084C334.692 38.7997 334.372 38.6575 333.993 38.6575H321.627C321.247 38.6575 320.916 38.7997 320.632 39.084C320.371 39.3445 320.241 39.6644 320.241 40.0434V52.0543C320.241 52.4333 320.371 52.765 320.632 53.0492C320.916 53.3098 321.247 53.4401 321.627 53.4401ZM341.517 56.354V35.7437H358.218C359 35.7437 359.711 35.945 360.35 36.3478C361.014 36.7268 361.535 37.248 361.914 37.9113C362.317 38.5509 362.518 39.2616 362.518 40.0434V56.354H359.604V40.0434C359.604 39.6644 359.462 39.3445 359.178 39.084C358.917 38.7997 358.597 38.6575 358.218 38.6575H345.852C345.473 38.6575 345.141 38.7997 344.857 39.084C344.573 39.3445 344.431 39.6644 344.431 40.0434V56.354H341.517Z" fill="#EEEEEE"/>
</svg>
