<svg xmlns="http://www.w3.org/2000/svg" viewBox="0 0 403.66 396"><defs><style>.cls-1{fill:#fff;}.cls-2{fill:#1d1d1b;}</style></defs><g id="Layer_2" data-name="Layer 2"><g id="Layer_3" data-name="Layer 3"><rect class="cls-1" width="403.66" height="396" rx="7.87"/><path class="cls-2" d="M103.2,163.26,58.33,248.73,52,260.8c-.58,1.11-4.28,7.31-2.73,7.5s7.06-10.56,7.6-11.59l44.87-85.47,6.34-12.07c.58-1.1,4.28-7.31,2.73-7.5s-7.06,10.56-7.6,11.59Z"/><path class="cls-2" d="M155.1,66l42.48,91.81L203.66,171l11.25-19.49H111.26l-3.19,7.7,48.32-92,6.77-12.91c.58-1.1,4.28-7.3,2.73-7.5s-7.06,10.57-7.6,11.6l-48.31,92-6.78,12.9c-.22.42-3.5,7.7-3.19,7.7H203.66c2.19,0,5.67-7.56,6.6-9.18,1.06-1.85,5.72-8,4.65-10.31l-42.48-91.8-6.08-13.15c-.09-.2-6.14,8.39-6.6,9.19C158.69,57.55,154,63.71,155.1,66Z"/><path class="cls-2" d="M343.52,330H303.46c-1.19,0-4.93.64-5.94,0-1.6-1.09-2.94-6.35-3.72-8l-9-19.49-55-118.89-14.84-32.07L203.66,171c41.26,0,82.57-.63,123.83,0,1.47,0,.75-.87,1,.72a60.35,60.35,0,0,1,.15,7.12l.62,29.47L331,293l1.18,56c0,1.48,4.78-5.54,5.13-6.11,1.51-2.46,2.94-5,4.23-7.56.67-1.33,2-3.32,2-4.82l-1.27-60.25-2-96.11L339.82,152l-.06-.5H214.91c-2.19,0-5.67,7.57-6.6,9.18-1.06,1.85-5.72,8-4.65,10.31l39,84.28L270.77,316l9.93,21.44,3.36,7.27c.53,1.14,1,3.16,1.89,4.08s.76.72,2.48.72h43.84c2.19,0,5.66-7.56,6.6-9.18C339.31,339.52,343.72,330,343.52,330Z"/><path class="cls-2" d="M297.53,330H178.79c-2.19,0-5.66,7.56-6.6,9.18-.44.77-4.85,10.31-4.65,10.31H286.28c2.19,0,5.67-7.57,6.6-9.19.45-.77,4.86-10.3,4.65-10.3Z"/><path class="cls-2" d="M150.52,170.46v89.26c0,1.46,4.78-5.54,5.13-6.11,1.89-3.07,6.24-8.52,6.24-12.38V152c0-1.46-4.78,5.55-5.13,6.11-1.89,3.07-6.24,8.52-6.24,12.38Z"/></g></g></svg>