<svg xmlns="http://www.w3.org/2000/svg" viewBox="0 0 381.65 381.65"><defs><style>.cls-1{fill:#1d1d1b;}.cls-2{fill:#fff;}</style></defs><g id="Layer_2" data-name="Layer 2"><g id="Logo"><circle class="cls-1" cx="190.83" cy="190.83" r="190.83"/><path class="cls-2" d="M89.87,134.62,45,220.09l-6.34,12.07c-.58,1.1-4.28,7.3-2.73,7.5s7.06-10.56,7.6-11.59L88.4,142.6l6.34-12.07c.58-1.11,4.28-7.31,2.73-7.5s-7.06,10.56-7.6,11.59Z"/><path class="cls-2" d="M141.77,37.37l42.47,91.8,6.09,13.15,11.25-19.49H97.93l-3.19,7.7,48.31-92.05,6.78-12.9c.57-1.1,4.28-7.31,2.73-7.5S145.5,28.64,145,29.67l-48.32,92-6.77,12.91c-.22.42-3.5,7.7-3.19,7.7H190.33c2.18,0,5.66-7.57,6.59-9.18,1.07-1.85,5.72-8,4.66-10.31L159.1,31,153,17.88c-.1-.2-6.14,8.39-6.6,9.18C145.35,28.91,140.7,35.07,141.77,37.37Z"/><path class="cls-2" d="M330.18,301.34H290.12c-1.18,0-4.92.65-5.94,0-1.6-1.08-2.94-6.34-3.72-8l-9-19.48-55-118.89-14.84-32.07-11.25,19.49c41.26,0,82.57-.63,123.82,0,1.48,0,.76-.87,1,.72a58.28,58.28,0,0,1,.15,7.12l.62,29.47,1.79,84.69,1.18,56c0,1.48,4.77-5.54,5.12-6.11,1.52-2.46,2.95-5,4.24-7.56.66-1.34,2-3.32,2-4.82L329,241.58l-2-96.11-.47-22.14-.06-.5H201.58c-2.19,0-5.67,7.56-6.6,9.18-1.07,1.85-5.72,8-4.65,10.31l39,84.28,28.1,60.72,9.92,21.44,3.37,7.27c.52,1.14,1,3.16,1.89,4.08s.76.72,2.47.72h43.84c2.19,0,5.67-7.56,6.6-9.18C326,310.87,330.39,301.34,330.18,301.34Z"/><path class="cls-2" d="M284.2,301.35H165.46c-2.19,0-5.67,7.56-6.6,9.18-.45.77-4.86,10.3-4.65,10.3H273c2.19,0,5.66-7.56,6.6-9.18.44-.77,4.85-10.3,4.65-10.3Z"/><path class="cls-2" d="M137.18,141.82v89.26c0,1.46,4.78-5.55,5.13-6.11,1.89-3.07,6.24-8.52,6.24-12.38V123.33c0-1.46-4.78,5.54-5.13,6.11-1.89,3.07-6.24,8.52-6.24,12.38Z"/></g></g></svg>