<svg width="65" height="67" viewBox="0 0 65 67" fill="none" xmlns="http://www.w3.org/2000/svg">
<path d="M11.9787 25.7463L2.08329 44.5955L0.685086 47.2574C0.557175 47.5 -0.258809 48.8673 0.0830222 48.9114C0.424853 48.9555 1.64001 46.5825 1.7591 46.3554L11.6546 27.5061L13.0528 24.8443C13.1807 24.5995 13.9967 23.2321 13.6548 23.1902C13.313 23.1483 12.0978 25.5191 11.9787 25.7463Z" fill="#252323"/>
<path d="M23.4245 4.29901L32.7907 24.5442L34.1337 27.4443L36.6148 23.146H13.7562L13.0527 24.8442L23.7068 4.5438L25.202 1.69889C25.3277 1.4563 26.1459 0.0867674 25.8041 0.0448656C25.4622 0.00296369 24.2471 2.37373 24.1368 2.60088L13.4805 22.8902L11.9875 25.7373C11.939 25.83 11.2156 27.4355 11.284 27.4355H34.1337C34.6145 27.4355 35.382 25.766 35.5871 25.4109C35.823 25.003 36.8485 23.6467 36.6148 23.1372L27.2464 2.89419L25.9011 0.000758159C25.8791 -0.0433491 24.547 1.85106 24.4456 2.02528C24.214 2.43327 23.1885 3.79178 23.4245 4.29901Z" fill="#252323"/>
<path d="M64.9758 62.5139H56.1411C55.8808 62.5139 55.056 62.6573 54.8311 62.5139C54.4782 62.2757 54.1827 61.1157 54.0107 60.7496L52.0259 56.4536L39.8964 30.234L36.6236 23.1614L34.1426 27.4597C43.2419 27.4597 52.3523 27.3207 61.4494 27.4597C61.7758 27.4597 61.617 27.2678 61.6699 27.6185C61.7129 28.1407 61.724 28.6651 61.703 29.1887L61.8397 35.6879L62.2345 54.3651L62.4947 66.7151C62.4947 67.0415 63.5467 65.4934 63.6239 65.3677C63.9591 64.8251 64.2745 64.265 64.5589 63.7004C64.7045 63.4049 65 62.9682 65 62.6374L64.7155 49.3347L64.2745 28.1389L64.1708 23.2563L64.1576 23.146H36.6148C36.1318 23.146 35.3644 24.8132 35.1593 25.1705C34.9233 25.5785 33.8978 26.9348 34.1338 27.4442L42.7347 46.031L48.9317 59.422L51.1195 64.1503L51.8627 65.7536C51.9774 66.005 52.0832 66.4505 52.2795 66.6534C52.4758 66.8563 52.4471 66.8122 52.8242 66.8122H62.4925C62.9755 66.8122 63.743 65.1449 63.9481 64.7876C64.0539 64.6156 65.0221 62.5139 64.9758 62.5139Z" fill="#252323"/>
<path d="M54.8355 62.5161H28.649C28.166 62.5161 27.3986 64.1834 27.1935 64.5406C27.0942 64.7104 26.1217 66.8122 26.168 66.8122H52.3655C52.8485 66.8122 53.6137 65.1449 53.821 64.7876C53.9181 64.6178 54.8906 62.5161 54.8465 62.5161H54.8355Z" fill="#252323"/>
<path d="M22.4122 27.3339V47.019C22.4122 47.341 23.4664 45.795 23.5436 45.6715C23.9604 44.9945 24.9197 43.7926 24.9197 42.9413V23.2562C24.9197 22.9342 23.8656 24.478 23.7884 24.6037C23.3716 25.2808 22.4122 26.4827 22.4122 27.3339Z" fill="#252323"/>
</svg>
